<svg id="Layer_1" data-name="Layer 1" xmlns="http://www.w3.org/2000/svg" xmlns:xlink="http://www.w3.org/1999/xlink" viewBox="0 0 439.12 350.42"><defs><style>.cls-1{fill:url(#linear-gradient);}.cls-2{fill:#060707;}.cls-3{fill:url(#linear-gradient-2);}.cls-4{fill:#181818;}.cls-5{fill:url(#linear-gradient-3);}.cls-6{fill:url(#linear-gradient-4);}.cls-7{fill:url(#linear-gradient-5);}.cls-8{fill:#101010;fill-rule:evenodd;}.cls-9{fill:#303030;opacity:0.1;}</style><linearGradient id="linear-gradient" y1="281.73" x2="439.12" y2="281.73" gradientUnits="userSpaceOnUse"><stop offset="0" stop-color="#030303"/><stop offset="1" stop-color="#292929"/></linearGradient><linearGradient id="linear-gradient-2" x1="152.64" y1="349.34" x2="219.56" y2="349.34" gradientUnits="userSpaceOnUse"><stop offset="0.01" stop-color="#545454"/><stop offset="0.07" stop-color="#373737"/><stop offset="0.12" stop-color="#1d1d1d"/><stop offset="0.18" stop-color="#0e0e0e"/><stop offset="0.22" stop-color="#080808"/><stop offset="0.83"/></linearGradient><linearGradient id="linear-gradient-3" x1="186.1" y1="349.27" x2="186.1" y2="302" gradientUnits="userSpaceOnUse"><stop offset="0" stop-color="#050505"/><stop offset="0.04" stop-color="#020202"/><stop offset="0.21"/><stop offset="0.49" stop-color="#080808"/><stop offset="0.83"/></linearGradient><linearGradient id="linear-gradient-4" x1="1208.43" y1="349.34" x2="1275.34" y2="349.34" gradientTransform="matrix(-1, 0, 0, 1, 1494.9, 0)" xlink:href="#linear-gradient-2"/><linearGradient id="linear-gradient-5" x1="1241.89" y1="349.27" x2="1241.89" y2="302" gradientTransform="matrix(-1, 0, 0, 1, 1494.9, 0)" xlink:href="#linear-gradient-3"/></defs><title>imac</title><path class="cls-1" d="M0,290.63A11.37,11.37,0,0,0,11.37,302H427.74a11.38,11.38,0,0,0,11.38-11.37V261.46H0Z"/><path class="cls-2" d="M427.74,0H11.37A11.37,11.37,0,0,0,0,11.37V261.46H439.12V11.37A11.38,11.38,0,0,0,427.74,0Z"/><path class="cls-3" d="M161.2,349.27s-8.56-.2-8.56-1v1.15c0,1,8.56,1,8.56,1h58.36v-1.15Z"/><path class="cls-4" d="M161.2,350.42"/><path class="cls-5" d="M173.34,302s-3.89,30.67-4.07,31.88C168.68,337.94,152.9,348,152.9,348s-2.55,1.27,8.3,1.27h58.36V302Z"/><path class="cls-6" d="M277.92,349.27s8.56-.2,8.56-1v1.15c0,1-8.56,1-8.56,1H219.56v-1.15Z"/><path class="cls-7" d="M265.78,302s3.89,30.67,4.06,31.88c.6,4.06,16.37,14.12,16.37,14.12s2.56,1.27-8.29,1.27H219.56V302Z"/><path class="cls-8" d="M220.4,271.88a4.24,4.24,0,0,1,3.13-1.73,4.25,4.25,0,0,1-1,3.18,3.38,3.38,0,0,1-3,1.4A3.69,3.69,0,0,1,220.4,271.88Z"/><path class="cls-8" d="M219.7,275.87c.67,0,1.92-.93,3.55-.93a4.45,4.45,0,0,1,3.91,2,4.33,4.33,0,0,0-2.16,3.78,4.44,4.44,0,0,0,2.69,4.06s-1.88,5.28-4.42,5.28c-1.16,0-2.07-.78-3.3-.78s-2.49.81-3.3.81c-2.32,0-5.24-5-5.24-9s2.47-6.05,4.8-6.05C217.74,275,218.91,275.87,219.7,275.87Z"/><path class="cls-9" d="M341.4,0h-330A11.37,11.37,0,0,0,0,11.37V261.46H42.53Z"/></svg>